<svg xmlns="http://www.w3.org/2000/svg" xmlns:xlink="http://www.w3.org/1999/xlink" version="1.1" class="marks" width="668" height="368" viewBox="0 0 668 368" style="background-color: transparent;"><g fill="none" stroke-miterlimit="10" transform="translate(100,37)"><g class="mark-group role-frame root" role="graphics-object" aria-roledescription="group mark container"><g transform="translate(0,0)"><path class="background" aria-hidden="true" d="M0.5,0.5h427v300h-427Z" fill="transparent" stroke="transparent"></path><g><g class="mark-group role-axis" role="graphics-symbol" aria-roledescription="axis" aria-label="X-axis for a time scale with values from July 31, 2025 to May 31, 2026"><g transform="translate(0.5,300.5)"><path class="background" aria-hidden="true" d="M0,0h0v0h0Z" pointer-events="none"></path><g><g class="mark-rule role-axis-tick" pointer-events="none"><line transform="translate(0,0)" x2="0" y2="5" stroke="#17201d" stroke-width="1" opacity="1"></line><line transform="translate(44,0)" x2="0" y2="5" stroke="#17201d" stroke-width="1" opacity="1"></line><line transform="translate(86,0)" x2="0" y2="5" stroke="#17201d" stroke-width="1" opacity="1"></line><line transform="translate(129,0)" x2="0" y2="5" stroke="#17201d" stroke-width="1" opacity="1"></line><line transform="translate(171,0)" x2="0" y2="5" stroke="#17201d" stroke-width="1" opacity="1"></line><line transform="translate(215,0)" x2="0" y2="5" stroke="#17201d" stroke-width="1" opacity="1"></line><line transform="translate(258,0)" x2="0" y2="5" stroke="#17201d" stroke-width="1" opacity="1"></line><line transform="translate(298,0)" x2="0" y2="5" stroke="#17201d" stroke-width="1" opacity="1"></line><line transform="translate(341,0)" x2="0" y2="5" stroke="#17201d" stroke-width="1" opacity="1"></line><line transform="translate(383,0)" x2="0" y2="5" stroke="#17201d" stroke-width="1" opacity="1"></line><line transform="translate(427,0)" x2="0" y2="5" stroke="#17201d" stroke-width="1" opacity="1"></line></g><g class="mark-text role-axis-label" pointer-events="none"><text text-anchor="middle" transform="translate(0,24)" font-family="OpenAI Sans, OpenAI Sans Variable Scripts, sans-serif" font-size="12px" font-weight="normal" fill="#17201d" opacity="1">Aug</text><text text-anchor="middle" transform="translate(43.54276315789473,24)" font-family="OpenAI Sans, OpenAI Sans Variable Scripts, sans-serif" font-size="12px" font-weight="normal" fill="#17201d" opacity="1">Sep</text><text text-anchor="middle" transform="translate(85.68092105263159,24)" font-family="OpenAI Sans, OpenAI Sans Variable Scripts, sans-serif" font-size="12px" font-weight="normal" fill="#17201d" opacity="1">Oct</text><text text-anchor="middle" transform="translate(129.2236842105263,24)" font-family="OpenAI Sans, OpenAI Sans Variable Scripts, sans-serif" font-size="12px" font-weight="normal" fill="#17201d" opacity="1">Nov</text><text text-anchor="middle" transform="translate(171.36184210526318,24)" font-family="OpenAI Sans, OpenAI Sans Variable Scripts, sans-serif" font-size="12px" font-weight="normal" fill="#17201d" opacity="1">Dec</text><text text-anchor="middle" transform="translate(214.9046052631579,24)" font-family="OpenAI Sans, OpenAI Sans Variable Scripts, sans-serif" font-size="12px" font-weight="normal" fill="#17201d" opacity="1">Jan</text><text text-anchor="middle" transform="translate(258.4473684210526,24)" font-family="OpenAI Sans, OpenAI Sans Variable Scripts, sans-serif" font-size="12px" font-weight="normal" fill="#17201d" opacity="1">Feb</text><text text-anchor="middle" transform="translate(297.77631578947364,24)" font-family="OpenAI Sans, OpenAI Sans Variable Scripts, sans-serif" font-size="12px" font-weight="normal" fill="#17201d" opacity="1">Mar</text><text text-anchor="middle" transform="translate(341.3190789473684,24)" font-family="OpenAI Sans, OpenAI Sans Variable Scripts, sans-serif" font-size="12px" font-weight="normal" fill="#17201d" opacity="1">Apr</text><text text-anchor="middle" transform="translate(383.45723684210526,24)" font-family="OpenAI Sans, OpenAI Sans Variable Scripts, sans-serif" font-size="12px" font-weight="normal" fill="#17201d" opacity="1">May</text><text text-anchor="middle" transform="translate(427,24)" font-family="OpenAI Sans, OpenAI Sans Variable Scripts, sans-serif" font-size="12px" font-weight="normal" fill="#17201d" opacity="1">Jun</text></g><g class="mark-rule role-axis-domain" pointer-events="none"><line transform="translate(0,0)" x2="427" y2="0" stroke="#17201d" stroke-width="1" opacity="1"></line></g></g><path class="foreground" aria-hidden="true" d="" pointer-events="none" display="none"></path></g></g><g class="mark-group role-axis" role="graphics-symbol" aria-roledescription="axis" aria-label="Y-axis titled 'Number of 28-day active users, relative to Aug 1, 2025' for a linear scale with values from 1 to 200"><g transform="translate(0.5,0.5)"><path class="background" aria-hidden="true" d="M0,0h0v0h0Z" pointer-events="none"></path><g><g class="mark-rule role-axis-tick" pointer-events="none"><line transform="translate(0,300)" x2="-5" y2="0" stroke="#17201d" stroke-width="1" opacity="1"></line><line transform="translate(0,226)" x2="-5" y2="0" stroke="#17201d" stroke-width="1" opacity="1"></line><line transform="translate(0,151)" x2="-5" y2="0" stroke="#17201d" stroke-width="1" opacity="1"></line><line transform="translate(0,75)" x2="-5" y2="0" stroke="#17201d" stroke-width="1" opacity="1"></line><line transform="translate(0,0)" x2="-5" y2="0" stroke="#17201d" stroke-width="1" opacity="1"></line></g><g class="mark-text role-axis-label" pointer-events="none"><text text-anchor="end" transform="translate(-15,304)" font-family="SF Mono, monospace" font-size="12px" font-weight="normal" fill="#17201d" opacity="1">1x</text><text text-anchor="end" transform="translate(-15,230.13065326633165)" font-family="SF Mono, monospace" font-size="12px" font-weight="normal" fill="#17201d" opacity="1">50x</text><text text-anchor="end" transform="translate(-15,154.7537688442211)" font-family="SF Mono, monospace" font-size="12px" font-weight="normal" fill="#17201d" opacity="1">100x</text><text text-anchor="end" transform="translate(-15,79.37688442211055)" font-family="SF Mono, monospace" font-size="12px" font-weight="normal" fill="#17201d" opacity="1">150x</text><text text-anchor="end" transform="translate(-15,4)" font-family="SF Mono, monospace" font-size="12px" font-weight="normal" fill="#17201d" opacity="1">200x</text></g><g class="mark-rule role-axis-domain" pointer-events="none"><line transform="translate(0,300)" x2="0" y2="-300" stroke="#17201d" stroke-width="1" opacity="1"></line></g><g class="mark-text role-axis-title" pointer-events="none"><text text-anchor="middle" transform="translate(-80.6984375,150) rotate(-90) translate(0,-3)" font-family="OpenAI Sans, OpenAI Sans Variable Scripts, sans-serif" font-size="14px" font-weight="normal" fill="#17201d" opacity="1"><tspan>Number of 28-day active users, relative</tspan><tspan x="0" dy="16.8">to Aug 1, 2025</tspan></text></g></g><path class="foreground" aria-hidden="true" d="" pointer-events="none" display="none"></path></g></g><g class="mark-rule role-mark layer_0_marks" role="graphics-object" aria-roledescription="rule mark container"><line aria-label="date (year-month-date): Jan 31, 2026; yStart: 1; yEnd: 178" role="graphics-symbol" aria-roledescription="rule mark" transform="translate(257.335389254386,300)" x2="0" y2="-266.83417085427135" stroke="#767676" stroke-width="2" stroke-dasharray="1,4" opacity="0.8"></line><line aria-label="date (year-month-date): Feb 28, 2026; yStart: 1; yEnd: 168" role="graphics-symbol" aria-roledescription="rule mark" transform="translate(296.664336622807,300)" x2="0" y2="-251.75879396984925" stroke="#767676" stroke-width="2" stroke-dasharray="1,4" opacity="0.8"></line><line aria-label="date (year-month-date): Apr 14, 2026; yStart: 1; yEnd: 142" role="graphics-symbol" aria-roledescription="rule mark" transform="translate(359.813048245614,300)" x2="0" y2="-212.56281407035175" stroke="#767676" stroke-width="2" stroke-dasharray="1,4" opacity="0.8"></line></g><g class="mark-group role-scope layer_1_pathgroup" role="graphics-object" aria-roledescription="group mark container"><g transform="translate(0,0)"><path class="background" aria-hidden="true" d="M0,0h427v300h-427Z"></path><g><g class="mark-line role-mark layer_1_marks" role="graphics-object" aria-roledescription="line mark container"><path aria-label="date (year-month-date): Jul 31, 2025; multiple: 1; seriesLabel: Individuals; Date: Aug 1, 2025; Audience: Individuals; Number of 28-day active users, relative to Aug 1, 2025: 1.0" role="graphics-symbol" aria-roledescription="line mark" d="M-1.171,300L7.257,299.965L17.089,299.619L26.922,299.518L36.754,299.141L46.586,298.45L56.418,298.063L66.251,297.221L76.083,296.549L85.915,296.156L95.747,295.783L105.579,295.495L115.412,295.338L125.244,295.175L135.135,295.047L144.967,294.943L154.799,294.708L164.631,294.465L174.464,294.365L184.296,294.265L194.128,294.219L203.96,294.239L213.793,294.266L223.625,294.125L233.457,293.816L243.289,293.347L253.122,292.594L262.954,289.921L272.786,287.283L282.618,285.433L292.451,283.732L302.283,282.211L312.056,279.524L321.889,277.13L331.721,274.852L341.553,272.074L351.385,268.918L361.218,264.598L371.05,259.75L380.882,252.597L390.714,246.682L400.547,239.805L410.379,231.55L420.211,224.967L430.043,218.539L439.876,209.74" stroke="#0e8f80" stroke-width="1.5"></path></g></g><path class="foreground" aria-hidden="true" d="" display="none"></path></g><g transform="translate(0,0)"><path class="background" aria-hidden="true" d="M0,0h427v300h-427Z"></path><g><g class="mark-line role-mark layer_1_marks" role="graphics-object" aria-roledescription="line mark container"><path aria-label="date (year-month-date): Jul 31, 2025; multiple: 1; seriesLabel: Organizations; Date: Aug 1, 2025; Audience: Organizations; Number of 28-day active users, relative to Aug 1, 2025: 1.0" role="graphics-symbol" aria-roledescription="line mark" d="M-1.171,300L7.257,300.024L17.089,299.832L26.922,299.716L36.754,299.3L46.586,298.584L56.418,297.997L66.251,297.057L76.083,296.241L85.915,295.681L95.747,295.006L105.579,294.414L115.412,293.97L125.244,293.354L135.135,292.85L144.967,292.21L154.799,291.531L164.631,290.979L174.464,290.715L184.296,290.299L194.128,290.079L203.96,290.071L213.793,290.299L223.625,289.911L233.457,288.875L243.289,287.496L253.122,285.972L262.954,283.369L272.786,280.214L282.618,277.683L292.451,274.976L302.283,271.521L312.056,265.607L321.889,259.272L331.721,253.21L341.553,248.784L351.385,244.313L361.218,239.227L371.05,233.672L380.882,224.531L390.714,218.137L400.547,210.675L410.379,203.11L420.211,198.479L430.043,192.525L439.876,173.887" stroke="#4677b8" stroke-width="1.5"></path></g></g><path class="foreground" aria-hidden="true" d="" display="none"></path></g><g transform="translate(0,0)"><path class="background" aria-hidden="true" d="M0,0h427v300h-427Z"></path><g><g class="mark-line role-mark layer_1_marks" role="graphics-object" aria-roledescription="line mark container"><path aria-label="date (year-month-date): Jul 31, 2025; multiple: 1; seriesLabel: OpenAI; Date: Aug 1, 2025; Audience: OpenAI; Number of 28-day active users, relative to Aug 1, 2025: 1.0" role="graphics-symbol" aria-roledescription="line mark" d="M-1.171,300L7.257,300L17.089,299.873L26.922,299.775L36.754,299.687L46.586,299.579L56.418,299.511L66.251,299.413L76.083,299.305L85.915,299.246L95.747,299.197L105.579,299.158L115.412,299.129L125.244,299.05L135.135,299.021L144.967,298.943L154.799,298.864L164.631,298.884L174.464,298.806L184.296,298.698L194.128,298.541L203.96,298.522L213.793,298.522L223.625,298.532L233.457,298.365L243.289,298.209L253.122,298.032L262.954,297.895L272.786,297.817L282.618,297.739L292.451,297.592L302.283,297.494L312.056,297.474L321.889,297.337L331.721,297.249L341.553,297.21L351.385,297.122L361.218,297.063L371.05,296.916L380.882,296.799L390.714,296.691L400.547,296.633L410.379,296.544L420.211,296.417L430.043,296.28L439.876,296.212" stroke="#c9972d" stroke-width="1.5"></path></g></g><path class="foreground" aria-hidden="true" d="" display="none"></path></g></g><g class="mark-text role-mark layer_2_marks" role="graphics-object" aria-roledescription="text mark container"><text aria-label="date (year-month-date): Jun 10, 2026; multiple: 60.87; seriesLabel: Individuals; endLabel: Individuals (61x); Date: Jun 11, 2026; Audience: Individuals; Number of 28-day active users, relative to Aug 1, 2025: 60.9" role="graphics-symbol" aria-roledescription="text mark" text-anchor="start" transform="translate(447.875548245614,213.7403393272362)" font-family="OpenAI Sans, OpenAI Sans Variable Scripts, sans-serif" font-size="12px" fill="#0e8f80">Individuals (61x)</text><text aria-label="date (year-month-date): Jun 10, 2026; multiple: 84.66; seriesLabel: Organizations; endLabel: Organizations (85x); Date: Jun 11, 2026; Audience: Organizations; Number of 28-day active users, relative to Aug 1, 2025: 84.7" role="graphics-symbol" aria-roledescription="text mark" text-anchor="start" transform="translate(447.875548245614,177.88667475306534)" font-family="OpenAI Sans, OpenAI Sans Variable Scripts, sans-serif" font-size="12px" fill="#4677b8">Organizations (85x)</text><text aria-label="date (year-month-date): Jun 10, 2026; multiple: 3.51; seriesLabel: OpenAI; endLabel: OpenAI (4x); Date: Jun 11, 2026; Audience: OpenAI; Number of 28-day active users, relative to Aug 1, 2025: 3.5" role="graphics-symbol" aria-roledescription="text mark" text-anchor="start" transform="translate(447.875548245614,300.2115773673367)" font-family="OpenAI Sans, OpenAI Sans Variable Scripts, sans-serif" font-size="12px" fill="#c9972d">OpenAI (4x)</text></g><g class="mark-text role-mark layer_3_marks" role="graphics-object" aria-roledescription="text mark container"><text aria-label="labelDate (year-month-date): Jan 31, 2026; labelY: 184; label: macOS App Launch,
Free + Go Access" role="graphics-symbol" aria-roledescription="text mark" text-anchor="end" transform="translate(249.33538925438597,26.120603015075382)" font-family="OpenAI Sans, OpenAI Sans Variable Scripts, sans-serif" font-size="12px" fill="#767676"><tspan>macOS App Launch,</tspan><tspan x="0" dy="14.399999999999999">Free + Go Access</tspan></text></g><g class="mark-text role-mark layer_4_marks" role="graphics-object" aria-roledescription="text mark container"><text aria-label="labelDate (year-month-date): Feb 19, 2026; labelY: 171; label: Windows App Launch" role="graphics-symbol" aria-roledescription="text mark" text-anchor="start" transform="translate(292.022889254386,45.71859296482411)" font-family="OpenAI Sans, OpenAI Sans Variable Scripts, sans-serif" font-size="12px" fill="#767676">Windows App Launch</text></g><g class="mark-text role-mark layer_5_marks" role="graphics-object" aria-roledescription="text mark container"><text aria-label="labelDate (year-month-date): Apr 14, 2026; labelY: 147; label: Knowledge Work
App Update" role="graphics-symbol" aria-roledescription="text mark" text-anchor="middle" transform="translate(359.813048245614,70.8994974874372)" font-family="OpenAI Sans, OpenAI Sans Variable Scripts, sans-serif" font-size="12px" fill="#767676"><tspan>Knowledge Work</tspan><tspan x="0" dy="14.399999999999999">App Update</tspan></text></g><g class="mark-group role-legend" role="graphics-symbol" aria-roledescription="legend" aria-label="Symbol legend for fill color and stroke color with 3 values: Individuals, Organizations, OpenAI"><g transform="translate(0,-32)"><path class="background" aria-hidden="true" d="M0,0h282v14h-282Z" pointer-events="none" stroke-width="1"></path><g><g class="mark-group role-legend-entry"><g transform="translate(0,0)"><path class="background" aria-hidden="true" d="M0,0h0v0h0Z" pointer-events="none"></path><g><g class="mark-group role-scope" role="graphics-object" aria-roledescription="group mark container"><g transform="translate(0,0)"><path class="background" aria-hidden="true" d="M0,0h86.29188537597656v14h-86.29188537597656Z" pointer-events="none" opacity="1"></path><g><g class="mark-symbol role-legend-symbol" pointer-events="none"><path transform="translate(7,7)" d="M5,0A5,5,0,1,1,-5,0A5,5,0,1,1,5,0" fill="#0e8f80" stroke="#0e8f80" stroke-width="1.5" opacity="1"></path></g><g class="mark-text role-legend-label" pointer-events="none"><text text-anchor="start" transform="translate(18,11)" font-family="OpenAI Sans, OpenAI Sans Variable Scripts, sans-serif" font-size="14px" font-weight="normal" fill="#17201d" opacity="1">Individuals</text></g></g><path class="foreground" aria-hidden="true" d="" pointer-events="none" display="none"></path></g><g transform="translate(97,0)"><path class="background" aria-hidden="true" d="M0,0h107.06787109375v14h-107.06787109375Z" pointer-events="none" opacity="1"></path><g><g class="mark-symbol role-legend-symbol" pointer-events="none"><path transform="translate(7,7)" d="M5,0A5,5,0,1,1,-5,0A5,5,0,1,1,5,0" fill="#4677b8" stroke="#4677b8" stroke-width="1.5" opacity="1"></path></g><g class="mark-text role-legend-label" pointer-events="none"><text text-anchor="start" transform="translate(18,11)" font-family="OpenAI Sans, OpenAI Sans Variable Scripts, sans-serif" font-size="14px" font-weight="normal" fill="#17201d" opacity="1">Organizations</text></g></g><path class="foreground" aria-hidden="true" d="" pointer-events="none" display="none"></path></g><g transform="translate(215,0)"><path class="background" aria-hidden="true" d="M0,0h66.32795715332031v14h-66.32795715332031Z" pointer-events="none" opacity="1"></path><g><g class="mark-symbol role-legend-symbol" pointer-events="none"><path transform="translate(7,7)" d="M5,0A5,5,0,1,1,-5,0A5,5,0,1,1,5,0" fill="#c9972d" stroke="#c9972d" stroke-width="1.5" opacity="1"></path></g><g class="mark-text role-legend-label" pointer-events="none"><text text-anchor="start" transform="translate(18,11)" font-family="OpenAI Sans, OpenAI Sans Variable Scripts, sans-serif" font-size="14px" font-weight="normal" fill="#17201d" opacity="1">OpenAI</text></g></g><path class="foreground" aria-hidden="true" d="" pointer-events="none" display="none"></path></g></g></g><path class="foreground" aria-hidden="true" d="" pointer-events="none" display="none"></path></g></g></g><path class="foreground" aria-hidden="true" d="" pointer-events="none" display="none"></path></g></g></g><path class="foreground" aria-hidden="true" d="" display="none"></path></g></g></g></svg>