<svg xmlns="http://www.w3.org/2000/svg" xmlns:xlink="http://www.w3.org/1999/xlink" version="1.1" class="marks" width="668" height="383" viewBox="0 0 668 383" style="background-color: transparent;"><g fill="none" stroke-miterlimit="10" transform="translate(93,37)"><g class="mark-group role-frame root" role="graphics-object" aria-roledescription="group mark container"><g transform="translate(0,0)"><path class="background" aria-hidden="true" d="M0.5,0.5h570v300h-570Z" fill="transparent" stroke="transparent"></path><g><g class="mark-group role-axis" role="graphics-symbol" aria-roledescription="axis" aria-label="X-axis for a time scale with values from November 24, 2025 to May 31, 2026"><g transform="translate(0.5,300.5)"><path class="background" aria-hidden="true" d="M0,0h0v0h0Z" pointer-events="none"></path><g><g class="mark-rule role-axis-tick" pointer-events="none"><line transform="translate(18,0)" x2="0" y2="5" stroke="#17201d" stroke-width="1" opacity="1"></line><line transform="translate(112,0)" x2="0" y2="5" stroke="#17201d" stroke-width="1" opacity="1"></line><line transform="translate(206,0)" x2="0" y2="5" stroke="#17201d" stroke-width="1" opacity="1"></line><line transform="translate(291,0)" x2="0" y2="5" stroke="#17201d" stroke-width="1" opacity="1"></line><line transform="translate(385,0)" x2="0" y2="5" stroke="#17201d" stroke-width="1" opacity="1"></line><line transform="translate(476,0)" x2="0" y2="5" stroke="#17201d" stroke-width="1" opacity="1"></line></g><g class="mark-text role-axis-label" pointer-events="none"><text text-anchor="middle" transform="translate(18.191489361702125,24)" font-family="OpenAI Sans, OpenAI Sans Variable Scripts, sans-serif" font-size="12px" font-weight="normal" fill="#17201d" opacity="1"><tspan>Dec</tspan><tspan x="0" dy="14.399999999999999">2025</tspan></text><text text-anchor="middle" transform="translate(112.18085106382979,24)" font-family="OpenAI Sans, OpenAI Sans Variable Scripts, sans-serif" font-size="12px" font-weight="normal" fill="#17201d" opacity="1"><tspan>Jan</tspan><tspan x="0" dy="14.399999999999999">2026</tspan></text><text text-anchor="middle" transform="translate(206.17021276595747,24)" font-family="OpenAI Sans, OpenAI Sans Variable Scripts, sans-serif" font-size="12px" font-weight="normal" fill="#17201d" opacity="1"><tspan>Feb</tspan><tspan x="0" dy="14.399999999999999">2026</tspan></text><text text-anchor="middle" transform="translate(291.063829787234,24)" font-family="OpenAI Sans, OpenAI Sans Variable Scripts, sans-serif" font-size="12px" font-weight="normal" fill="#17201d" opacity="1"><tspan>Mar</tspan><tspan x="0" dy="14.399999999999999">2026</tspan></text><text text-anchor="middle" transform="translate(385.05319148936167,24)" font-family="OpenAI Sans, OpenAI Sans Variable Scripts, sans-serif" font-size="12px" font-weight="normal" fill="#17201d" opacity="1"><tspan>Apr</tspan><tspan x="0" dy="14.399999999999999">2026</tspan></text><text text-anchor="middle" transform="translate(476.01063829787233,24)" font-family="OpenAI Sans, OpenAI Sans Variable Scripts, sans-serif" font-size="12px" font-weight="normal" fill="#17201d" opacity="1"><tspan>May</tspan><tspan x="0" dy="14.399999999999999">2026</tspan></text></g><g class="mark-rule role-axis-domain" pointer-events="none"><line transform="translate(0,0)" x2="570" y2="0" stroke="#17201d" stroke-width="1" opacity="1"></line></g></g><path class="foreground" aria-hidden="true" d="" pointer-events="none" display="none"></path></g></g><g class="mark-group role-axis" role="graphics-symbol" aria-roledescription="axis" aria-label="Y-axis titled 'Share of requests above human-time threshold' for a linear scale with values from 0 to 90"><g transform="translate(0.5,0.5)"><path class="background" aria-hidden="true" d="M0,0h0v0h0Z" pointer-events="none"></path><g><g class="mark-rule role-axis-tick" pointer-events="none"><line transform="translate(0,300)" x2="-5" y2="0" stroke="#17201d" stroke-width="1" opacity="1"></line><line transform="translate(0,233)" x2="-5" y2="0" stroke="#17201d" stroke-width="1" opacity="1"></line><line transform="translate(0,167)" x2="-5" y2="0" stroke="#17201d" stroke-width="1" opacity="1"></line><line transform="translate(0,100)" x2="-5" y2="0" stroke="#17201d" stroke-width="1" opacity="1"></line><line transform="translate(0,33)" x2="-5" y2="0" stroke="#17201d" stroke-width="1" opacity="1"></line></g><g class="mark-text role-axis-label" pointer-events="none"><text text-anchor="end" transform="translate(-15,304)" font-family="SF Mono, monospace" font-size="12px" font-weight="normal" fill="#17201d" opacity="1">0%</text><text text-anchor="end" transform="translate(-15,237.33333333333334)" font-family="SF Mono, monospace" font-size="12px" font-weight="normal" fill="#17201d" opacity="1">20%</text><text text-anchor="end" transform="translate(-15,170.66666666666669)" font-family="SF Mono, monospace" font-size="12px" font-weight="normal" fill="#17201d" opacity="1">40%</text><text text-anchor="end" transform="translate(-15,104.00000000000001)" font-family="SF Mono, monospace" font-size="12px" font-weight="normal" fill="#17201d" opacity="1">60%</text><text text-anchor="end" transform="translate(-15,37.33333333333335)" font-family="SF Mono, monospace" font-size="12px" font-weight="normal" fill="#17201d" opacity="1">80%</text></g><g class="mark-rule role-axis-domain" pointer-events="none"><line transform="translate(0,300)" x2="0" y2="-300" stroke="#17201d" stroke-width="1" opacity="1"></line></g><g class="mark-text role-axis-title" pointer-events="none"><text text-anchor="middle" transform="translate(-73.473828125,150) rotate(-90) translate(0,-3)" font-family="OpenAI Sans, OpenAI Sans Variable Scripts, sans-serif" font-size="14px" font-weight="normal" fill="#17201d" opacity="1"><tspan>Share of requests above human-time</tspan><tspan x="0" dy="16.8">threshold</tspan></text></g></g><path class="foreground" aria-hidden="true" d="" pointer-events="none" display="none"></path></g></g><g class="mark-group role-scope layer_0_layer_0_pathgroup" role="graphics-object" aria-roledescription="group mark container"><g transform="translate(0,0)"><path class="background" aria-hidden="true" d="M0,0h570v300h-570Z"></path><g><g class="mark-line role-mark layer_0_layer_0_marks" role="graphics-object" aria-roledescription="line mark container"><path aria-label="sample_date (year-month-date): Nov 30, 2025; share_percent: 55; threshold: 30m+" role="graphics-symbol" aria-roledescription="line mark" d="M15.791,116.667L109.781,90.453L203.77,91.73L288.664,48.21L382.527,29.137L473.484,31.443" stroke="#0e8f80" stroke-width="1.5"></path></g><g class="mark-symbol role-mark layer_0_layer_1_marks" role="graphics-object" aria-roledescription="symbol mark container"><path aria-label="sample_date (year-month-date): Nov 30, 2025; share_percent: 55; threshold: 30m+" role="graphics-symbol" aria-roledescription="point" transform="translate(15.791223404255318,116.66666666666666)" d="M4.472,0A4.472,4.472,0,1,1,-4.472,0A4.472,4.472,0,1,1,4.472,0" fill="#0e8f80" stroke-width="1.5" opacity="1"></path><path aria-label="sample_date (year-month-date): Dec 31, 2025; share_percent: 62.86; threshold: 30m+" role="graphics-symbol" aria-roledescription="point" transform="translate(109.78058510638299,90.45333333333335)" d="M4.472,0A4.472,4.472,0,1,1,-4.472,0A4.472,4.472,0,1,1,4.472,0" fill="#0e8f80" stroke-width="1.5" opacity="1"></path><path aria-label="sample_date (year-month-date): Jan 31, 2026; share_percent: 62.48; threshold: 30m+" role="graphics-symbol" aria-roledescription="point" transform="translate(203.76994680851067,91.73000000000002)" d="M4.472,0A4.472,4.472,0,1,1,-4.472,0A4.472,4.472,0,1,1,4.472,0" fill="#0e8f80" stroke-width="1.5" opacity="1"></path><path aria-label="sample_date (year-month-date): Feb 28, 2026; share_percent: 75.54; threshold: 30m+" role="graphics-symbol" aria-roledescription="point" transform="translate(288.6635638297872,48.21000000000002)" d="M4.472,0A4.472,4.472,0,1,1,-4.472,0A4.472,4.472,0,1,1,4.472,0" fill="#0e8f80" stroke-width="1.5" opacity="1"></path><path aria-label="sample_date (year-month-date): Mar 31, 2026; share_percent: 81.26; threshold: 30m+" role="graphics-symbol" aria-roledescription="point" transform="translate(382.52659574468083,29.136666666666667)" d="M4.472,0A4.472,4.472,0,1,1,-4.472,0A4.472,4.472,0,1,1,4.472,0" fill="#0e8f80" stroke-width="1.5" opacity="1"></path><path aria-label="sample_date (year-month-date): Apr 30, 2026; share_percent: 80.57; threshold: 30m+" role="graphics-symbol" aria-roledescription="point" transform="translate(473.48404255319144,31.443333333333356)" d="M4.472,0A4.472,4.472,0,1,1,-4.472,0A4.472,4.472,0,1,1,4.472,0" fill="#0e8f80" stroke-width="1.5" opacity="1"></path></g></g><path class="foreground" aria-hidden="true" d="" display="none"></path></g><g transform="translate(0,0)"><path class="background" aria-hidden="true" d="M0,0h570v300h-570Z"></path><g><g class="mark-line role-mark layer_0_layer_0_marks" role="graphics-object" aria-roledescription="line mark container"><path aria-label="sample_date (year-month-date): Nov 30, 2025; share_percent: 35.42; threshold: 1h+" role="graphics-symbol" aria-roledescription="line mark" d="M15.791,181.943L109.781,126.053L203.77,128.197L288.664,80.827L382.527,60.187L473.484,65.92" stroke="#4677b8" stroke-width="1.5"></path></g><g class="mark-symbol role-mark layer_0_layer_1_marks" role="graphics-object" aria-roledescription="symbol mark container"><path aria-label="sample_date (year-month-date): Nov 30, 2025; share_percent: 35.42; threshold: 1h+" role="graphics-symbol" aria-roledescription="point" transform="translate(15.791223404255318,181.94333333333333)" d="M4.472,0A4.472,4.472,0,1,1,-4.472,0A4.472,4.472,0,1,1,4.472,0" fill="#4677b8" stroke-width="1.5" opacity="1"></path><path aria-label="sample_date (year-month-date): Dec 31, 2025; share_percent: 52.18; threshold: 1h+" role="graphics-symbol" aria-roledescription="point" transform="translate(109.78058510638299,126.05333333333333)" d="M4.472,0A4.472,4.472,0,1,1,-4.472,0A4.472,4.472,0,1,1,4.472,0" fill="#4677b8" stroke-width="1.5" opacity="1"></path><path aria-label="sample_date (year-month-date): Jan 31, 2026; share_percent: 51.54; threshold: 1h+" role="graphics-symbol" aria-roledescription="point" transform="translate(203.76994680851067,128.19666666666666)" d="M4.472,0A4.472,4.472,0,1,1,-4.472,0A4.472,4.472,0,1,1,4.472,0" fill="#4677b8" stroke-width="1.5" opacity="1"></path><path aria-label="sample_date (year-month-date): Feb 28, 2026; share_percent: 65.75; threshold: 1h+" role="graphics-symbol" aria-roledescription="point" transform="translate(288.6635638297872,80.82666666666667)" d="M4.472,0A4.472,4.472,0,1,1,-4.472,0A4.472,4.472,0,1,1,4.472,0" fill="#4677b8" stroke-width="1.5" opacity="1"></path><path aria-label="sample_date (year-month-date): Mar 31, 2026; share_percent: 71.94; threshold: 1h+" role="graphics-symbol" aria-roledescription="point" transform="translate(382.52659574468083,60.186666666666646)" d="M4.472,0A4.472,4.472,0,1,1,-4.472,0A4.472,4.472,0,1,1,4.472,0" fill="#4677b8" stroke-width="1.5" opacity="1"></path><path aria-label="sample_date (year-month-date): Apr 30, 2026; share_percent: 70.22; threshold: 1h+" role="graphics-symbol" aria-roledescription="point" transform="translate(473.48404255319144,65.92)" d="M4.472,0A4.472,4.472,0,1,1,-4.472,0A4.472,4.472,0,1,1,4.472,0" fill="#4677b8" stroke-width="1.5" opacity="1"></path></g></g><path class="foreground" aria-hidden="true" d="" display="none"></path></g><g transform="translate(0,0)"><path class="background" aria-hidden="true" d="M0,0h570v300h-570Z"></path><g><g class="mark-line role-mark layer_0_layer_0_marks" role="graphics-object" aria-roledescription="line mark container"><path aria-label="sample_date (year-month-date): Nov 30, 2025; share_percent: 4.17; threshold: 4h+" role="graphics-symbol" aria-roledescription="line mark" d="M15.791,286.11L109.781,219.903L203.77,198.82L288.664,162.37L382.527,153.333L473.484,158.733" stroke="#c9972d" stroke-width="1.5"></path></g><g class="mark-symbol role-mark layer_0_layer_1_marks" role="graphics-object" aria-roledescription="symbol mark container"><path aria-label="sample_date (year-month-date): Nov 30, 2025; share_percent: 4.17; threshold: 4h+" role="graphics-symbol" aria-roledescription="point" transform="translate(15.791223404255318,286.11)" d="M4.472,0A4.472,4.472,0,1,1,-4.472,0A4.472,4.472,0,1,1,4.472,0" fill="#c9972d" stroke-width="1.5" opacity="1"></path><path aria-label="sample_date (year-month-date): Dec 31, 2025; share_percent: 24.03; threshold: 4h+" role="graphics-symbol" aria-roledescription="point" transform="translate(109.78058510638299,219.9033333333333)" d="M4.472,0A4.472,4.472,0,1,1,-4.472,0A4.472,4.472,0,1,1,4.472,0" fill="#c9972d" stroke-width="1.5" opacity="1"></path><path aria-label="sample_date (year-month-date): Jan 31, 2026; share_percent: 30.35; threshold: 4h+" role="graphics-symbol" aria-roledescription="point" transform="translate(203.76994680851067,198.82000000000002)" d="M4.472,0A4.472,4.472,0,1,1,-4.472,0A4.472,4.472,0,1,1,4.472,0" fill="#c9972d" stroke-width="1.5" opacity="1"></path><path aria-label="sample_date (year-month-date): Feb 28, 2026; share_percent: 41.29; threshold: 4h+" role="graphics-symbol" aria-roledescription="point" transform="translate(288.6635638297872,162.37)" d="M4.472,0A4.472,4.472,0,1,1,-4.472,0A4.472,4.472,0,1,1,4.472,0" fill="#c9972d" stroke-width="1.5" opacity="1"></path><path aria-label="sample_date (year-month-date): Mar 31, 2026; share_percent: 44; threshold: 4h+" role="graphics-symbol" aria-roledescription="point" transform="translate(382.52659574468083,153.33333333333331)" d="M4.472,0A4.472,4.472,0,1,1,-4.472,0A4.472,4.472,0,1,1,4.472,0" fill="#c9972d" stroke-width="1.5" opacity="1"></path><path aria-label="sample_date (year-month-date): Apr 30, 2026; share_percent: 42.38; threshold: 4h+" role="graphics-symbol" aria-roledescription="point" transform="translate(473.48404255319144,158.73333333333332)" d="M4.472,0A4.472,4.472,0,1,1,-4.472,0A4.472,4.472,0,1,1,4.472,0" fill="#c9972d" stroke-width="1.5" opacity="1"></path></g></g><path class="foreground" aria-hidden="true" d="" display="none"></path></g><g transform="translate(0,0)"><path class="background" aria-hidden="true" d="M0,0h570v300h-570Z"></path><g><g class="mark-line role-mark layer_0_layer_0_marks" role="graphics-object" aria-roledescription="line mark container"><path aria-label="sample_date (year-month-date): Nov 30, 2025; share_percent: 2.08; threshold: 8h+" role="graphics-symbol" aria-roledescription="line mark" d="M15.791,293.057L109.781,263.593L203.77,241.19L288.664,215.56L382.527,207.507L473.484,214.507" stroke="#d85f45" stroke-width="1.5"></path></g><g class="mark-symbol role-mark layer_0_layer_1_marks" role="graphics-object" aria-roledescription="symbol mark container"><path aria-label="sample_date (year-month-date): Nov 30, 2025; share_percent: 2.08; threshold: 8h+" role="graphics-symbol" aria-roledescription="point" transform="translate(15.791223404255318,293.0566666666667)" d="M4.472,0A4.472,4.472,0,1,1,-4.472,0A4.472,4.472,0,1,1,4.472,0" fill="#d85f45" stroke-width="1.5" opacity="1"></path><path aria-label="sample_date (year-month-date): Dec 31, 2025; share_percent: 10.92; threshold: 8h+" role="graphics-symbol" aria-roledescription="point" transform="translate(109.78058510638299,263.59333333333336)" d="M4.472,0A4.472,4.472,0,1,1,-4.472,0A4.472,4.472,0,1,1,4.472,0" fill="#d85f45" stroke-width="1.5" opacity="1"></path><path aria-label="sample_date (year-month-date): Jan 31, 2026; share_percent: 17.64; threshold: 8h+" role="graphics-symbol" aria-roledescription="point" transform="translate(203.76994680851067,241.19000000000003)" d="M4.472,0A4.472,4.472,0,1,1,-4.472,0A4.472,4.472,0,1,1,4.472,0" fill="#d85f45" stroke-width="1.5" opacity="1"></path><path aria-label="sample_date (year-month-date): Feb 28, 2026; share_percent: 25.33; threshold: 8h+" role="graphics-symbol" aria-roledescription="point" transform="translate(288.6635638297872,215.55999999999997)" d="M4.472,0A4.472,4.472,0,1,1,-4.472,0A4.472,4.472,0,1,1,4.472,0" fill="#d85f45" stroke-width="1.5" opacity="1"></path><path aria-label="sample_date (year-month-date): Mar 31, 2026; share_percent: 27.75; threshold: 8h+" role="graphics-symbol" aria-roledescription="point" transform="translate(382.52659574468083,207.50666666666663)" d="M4.472,0A4.472,4.472,0,1,1,-4.472,0A4.472,4.472,0,1,1,4.472,0" fill="#d85f45" stroke-width="1.5" opacity="1"></path><path aria-label="sample_date (year-month-date): Apr 30, 2026; share_percent: 25.65; threshold: 8h+" role="graphics-symbol" aria-roledescription="point" transform="translate(473.48404255319144,214.50666666666666)" d="M4.472,0A4.472,4.472,0,1,1,-4.472,0A4.472,4.472,0,1,1,4.472,0" fill="#d85f45" stroke-width="1.5" opacity="1"></path></g></g><path class="foreground" aria-hidden="true" d="" display="none"></path></g></g><g class="mark-text role-mark layer_1_marks" role="graphics-object" aria-roledescription="text mark container"><text aria-label="sample_date (year-month-date): Apr 30, 2026; share_percent: 80.57; threshold: 30m+; line1: 30m+ 80.6%" role="graphics-symbol" aria-roledescription="text mark" text-anchor="start" transform="translate(481.48404255319144,35.44333333333336)" font-family="OpenAI Sans, OpenAI Sans Variable Scripts, sans-serif" font-size="12px" fill="#0e8f80">30m+ 80.6%</text><text aria-label="sample_date (year-month-date): Apr 30, 2026; share_percent: 70.22; threshold: 1h+; line1: 1h+ 70.2%" role="graphics-symbol" aria-roledescription="text mark" text-anchor="start" transform="translate(481.48404255319144,69.92)" font-family="OpenAI Sans, OpenAI Sans Variable Scripts, sans-serif" font-size="12px" fill="#4677b8">1h+ 70.2%</text><text aria-label="sample_date (year-month-date): Apr 30, 2026; share_percent: 42.38; threshold: 4h+; line1: 4h+ 42.4%" role="graphics-symbol" aria-roledescription="text mark" text-anchor="start" transform="translate(481.48404255319144,162.73333333333332)" font-family="OpenAI Sans, OpenAI Sans Variable Scripts, sans-serif" font-size="12px" fill="#c9972d">4h+ 42.4%</text><text aria-label="sample_date (year-month-date): Apr 30, 2026; share_percent: 25.65; threshold: 8h+; line1: 8h+ 25.6%" role="graphics-symbol" aria-roledescription="text mark" text-anchor="start" transform="translate(481.48404255319144,218.50666666666666)" font-family="OpenAI Sans, OpenAI Sans Variable Scripts, sans-serif" font-size="12px" fill="#d85f45">8h+ 25.6%</text></g><g class="mark-group role-legend" role="graphics-symbol" aria-roledescription="legend" aria-label="Symbol legend for fill color and stroke color with 4 values: 30m+, 1h+, 4h+, 8h+"><g transform="translate(0,-32)"><path class="background" aria-hidden="true" d="M0,0h213v14h-213Z" pointer-events="none" stroke-width="1"></path><g><g class="mark-group role-legend-entry"><g transform="translate(0,0)"><path class="background" aria-hidden="true" d="M0,0h0v0h0Z" pointer-events="none"></path><g><g class="mark-group role-scope" role="graphics-object" aria-roledescription="group mark container"><g transform="translate(0,0)"><path class="background" aria-hidden="true" d="M0,0h56.09397888183594v14h-56.09397888183594Z" pointer-events="none" opacity="1"></path><g><g class="mark-symbol role-legend-symbol" pointer-events="none"><path transform="translate(7,7)" d="M5,0A5,5,0,1,1,-5,0A5,5,0,1,1,5,0" fill="#0e8f80" stroke="#0e8f80" stroke-width="1.5" opacity="1"></path></g><g class="mark-text role-legend-label" pointer-events="none"><text text-anchor="start" transform="translate(18,11)" font-family="OpenAI Sans, OpenAI Sans Variable Scripts, sans-serif" font-size="14px" font-weight="normal" fill="#17201d" opacity="1">30m+</text></g></g><path class="foreground" aria-hidden="true" d="" pointer-events="none" display="none"></path></g><g transform="translate(67,0)"><path class="background" aria-hidden="true" d="M0,0h39.1259765625v14h-39.1259765625Z" pointer-events="none" opacity="1"></path><g><g class="mark-symbol role-legend-symbol" pointer-events="none"><path transform="translate(7,7)" d="M5,0A5,5,0,1,1,-5,0A5,5,0,1,1,5,0" fill="#4677b8" stroke="#4677b8" stroke-width="1.5" opacity="1"></path></g><g class="mark-text role-legend-label" pointer-events="none"><text text-anchor="start" transform="translate(18,11)" font-family="OpenAI Sans, OpenAI Sans Variable Scripts, sans-serif" font-size="14px" font-weight="normal" fill="#17201d" opacity="1">1h+</text></g></g><path class="foreground" aria-hidden="true" d="" pointer-events="none" display="none"></path></g><g transform="translate(117,0)"><path class="background" aria-hidden="true" d="M0,0h42.93397521972656v14h-42.93397521972656Z" pointer-events="none" opacity="1"></path><g><g class="mark-symbol role-legend-symbol" pointer-events="none"><path transform="translate(7,7)" d="M5,0A5,5,0,1,1,-5,0A5,5,0,1,1,5,0" fill="#c9972d" stroke="#c9972d" stroke-width="1.5" opacity="1"></path></g><g class="mark-text role-legend-label" pointer-events="none"><text text-anchor="start" transform="translate(18,11)" font-family="OpenAI Sans, OpenAI Sans Variable Scripts, sans-serif" font-size="14px" font-weight="normal" fill="#17201d" opacity="1">4h+</text></g></g><path class="foreground" aria-hidden="true" d="" pointer-events="none" display="none"></path></g><g transform="translate(170,0)"><path class="background" aria-hidden="true" d="M0,0h42.65397644042969v14h-42.65397644042969Z" pointer-events="none" opacity="1"></path><g><g class="mark-symbol role-legend-symbol" pointer-events="none"><path transform="translate(7,7)" d="M5,0A5,5,0,1,1,-5,0A5,5,0,1,1,5,0" fill="#d85f45" stroke="#d85f45" stroke-width="1.5" opacity="1"></path></g><g class="mark-text role-legend-label" pointer-events="none"><text text-anchor="start" transform="translate(18,11)" font-family="OpenAI Sans, OpenAI Sans Variable Scripts, sans-serif" font-size="14px" font-weight="normal" fill="#17201d" opacity="1">8h+</text></g></g><path class="foreground" aria-hidden="true" d="" pointer-events="none" display="none"></path></g></g></g><path class="foreground" aria-hidden="true" d="" pointer-events="none" display="none"></path></g></g></g><path class="foreground" aria-hidden="true" d="" pointer-events="none" display="none"></path></g></g></g><path class="foreground" aria-hidden="true" d="" display="none"></path></g></g></g></svg>